<?xml version="1.0" encoding="UTF-8" standalone="no"?>
<!DOCTYPE svg PUBLIC "-//W3C//DTD SVG 1.1//EN" "http://www.w3.org/Graphics/SVG/1.1/DTD/svg11.dtd">
<svg version="1.1" xmlns="http://www.w3.org/2000/svg" xmlns:xlink="http://www.w3.org/1999/xlink" preserveAspectRatio="xMidYMid meet" viewBox="0 0 300 600" width="300" height="600"><defs><path d="M50.71 244.87L51.99 245.08L53.23 245.36L54.44 245.73L55.63 246.16L56.77 246.67L57.88 247.24L58.94 247.88L59.96 248.58L60.94 249.34L61.86 250.16L62.74 251.03L63.55 251.96L64.31 252.93L65.02 253.95L65.66 255.02L66.23 256.12L66.73 257.27L67.17 258.45L67.53 259.66L67.82 260.91L68.03 262.18L68.15 263.48L68.2 264.8L68.15 266.12L68.03 267.42L67.82 268.69L67.53 269.94L67.17 271.15L66.73 272.33L66.23 273.48L65.66 274.58L65.02 275.65L64.31 276.67L63.55 277.64L62.74 278.57L61.86 279.44L60.94 280.26L59.96 281.02L58.94 281.72L57.88 282.36L56.77 282.94L55.63 283.44L54.44 283.88L53.23 284.24L51.99 284.53L50.71 284.73L49.41 284.86L48.09 284.9L46.77 284.86L45.48 284.73L44.2 284.53L42.96 284.24L41.74 283.88L40.56 283.44L39.42 282.94L38.31 282.36L37.25 281.72L36.23 281.02L35.25 280.26L34.33 279.44L33.45 278.57L32.63 277.64L31.87 276.67L31.17 275.65L30.53 274.58L29.96 273.48L29.45 272.33L29.02 271.15L28.66 269.94L28.37 268.69L28.16 267.42L28.04 266.12L27.99 264.8L28.04 263.48L28.16 262.18L28.37 260.91L28.66 259.66L29.02 258.45L29.45 257.27L29.96 256.12L30.53 255.02L31.17 253.95L31.87 252.93L32.63 251.96L33.45 251.03L34.33 250.16L35.25 249.34L36.23 248.58L37.25 247.88L38.31 247.24L39.42 246.67L40.56 246.16L41.74 245.73L42.96 245.36L44.2 245.08L45.48 244.87L46.77 244.74L48.09 244.7L49.41 244.74L50.71 244.87ZM45.5 255.39L44.3 255.81L43.17 256.37L42.13 257.07L41.19 257.9L40.37 258.84L39.66 259.87L39.1 261L38.68 262.21L38.42 263.48L38.33 264.8L38.42 266.12L38.68 267.4L39.1 268.6L39.66 269.73L40.37 270.77L41.19 271.7L42.13 272.53L43.17 273.23L44.3 273.8L45.5 274.22L46.77 274.48L48.09 274.56L49.42 274.48L50.69 274.22L51.89 273.8L53.02 273.23L54.06 272.53L55 271.7L55.82 270.77L56.52 269.73L57.09 268.6L57.51 267.4L57.77 266.12L57.86 264.8L57.77 263.48L57.51 262.21L57.09 261L56.52 259.87L55.82 258.84L55 257.9L54.06 257.07L53.02 256.37L51.89 255.81L50.69 255.39L49.42 255.13L48.09 255.04L46.77 255.13L45.5 255.39Z" id="c1gRD6hYYM"></path><path d="M281.82 159.09C176.91 176.71 142.83 198.91 179.59 225.71C216.35 252.52 207.16 265.53 152.02 264.77" id="a1gsYfJTVd"></path><path d="M54.04 144.45L71.54 144.45L71.54 161.95L54.04 161.95L54.04 144.45Z" id="d5pj8bkKZp"></path><path d="M199.44 54.24L200.71 54.45L201.96 54.74L203.17 55.1L204.35 55.54L205.5 56.04L206.6 56.61L207.67 57.25L208.69 57.96L209.66 58.72L210.59 59.53L211.46 60.41L212.28 61.33L213.04 62.31L213.74 63.33L214.38 64.39L214.95 65.5L215.46 66.64L215.89 67.83L216.26 69.04L216.54 70.28L216.75 71.56L216.88 72.86L216.92 74.18L216.88 75.5L216.75 76.79L216.54 78.07L216.26 79.31L215.89 80.53L215.46 81.71L214.95 82.85L214.38 83.96L213.74 85.02L213.04 86.04L212.28 87.02L211.46 87.94L210.59 88.82L209.66 89.64L208.69 90.4L207.67 91.1L206.6 91.74L205.5 92.31L204.35 92.82L203.17 93.25L201.96 93.61L200.71 93.9L199.44 94.11L198.14 94.23L196.82 94.28L195.5 94.23L194.2 94.11L192.93 93.9L191.68 93.61L190.47 93.25L189.29 92.82L188.14 92.31L187.04 91.74L185.97 91.1L184.95 90.4L183.98 89.64L183.05 88.82L182.18 87.94L181.36 87.02L180.6 86.04L179.9 85.02L179.26 83.96L178.68 82.85L178.18 81.71L177.74 80.53L177.38 79.31L177.09 78.07L176.89 76.79L176.76 75.5L176.72 74.18L176.76 72.86L176.89 71.56L177.09 70.28L177.38 69.04L177.74 67.83L178.18 66.64L178.68 65.5L179.26 64.39L179.9 63.33L180.6 62.31L181.36 61.33L182.18 60.41L183.05 59.53L183.98 58.72L184.95 57.96L185.97 57.25L187.04 56.61L188.14 56.04L189.29 55.54L190.47 55.1L191.68 54.74L192.93 54.45L194.2 54.24L195.5 54.12L196.82 54.07L198.14 54.12L199.44 54.24ZM194.22 64.76L193.02 65.18L191.89 65.75L190.85 66.45L189.92 67.27L189.09 68.21L188.39 69.25L187.82 70.38L187.4 71.58L187.14 72.85L187.06 74.18L187.14 75.5L187.4 76.77L187.82 77.97L188.39 79.1L189.09 80.14L189.92 81.08L190.85 81.9L191.89 82.61L193.02 83.17L194.22 83.59L195.49 83.85L196.82 83.94L198.14 83.85L199.41 83.59L200.62 83.17L201.75 82.61L202.78 81.9L203.72 81.08L204.55 80.14L205.25 79.1L205.81 77.97L206.23 76.77L206.49 75.5L206.58 74.18L206.49 72.85L206.23 71.58L205.81 70.38L205.25 69.25L204.55 68.21L203.72 67.27L202.78 66.45L201.75 65.75L200.62 65.18L199.41 64.76L198.14 64.5L196.82 64.41L195.49 64.5L194.22 64.76Z" id="f4rFt1DN9q"></path><path d="M73.56 30.91C73.56 36.29 69.19 40.67 63.8 40.67C58.41 40.67 54.04 36.29 54.04 30.91C54.04 25.52 58.41 21.14 63.8 21.14C69.19 21.14 73.56 25.52 73.56 30.91Z" id="d1cggDNZPh"></path><path d="M240.66 307.76C240.66 313.15 236.29 317.52 230.9 317.52C225.51 317.52 221.14 313.15 221.14 307.76C221.14 302.37 225.51 298 230.9 298C236.29 298 240.66 302.37 240.66 307.76Z" id="c4y3Du69s"></path><path d="M234.07 288.42L235.34 288.63L236.59 288.92L237.8 289.28L238.98 289.72L240.13 290.22L241.24 290.8L242.3 291.43L243.32 292.14L244.3 292.9L245.22 293.72L246.09 294.59L246.91 295.51L247.67 296.49L248.38 297.51L249.01 298.57L249.59 299.68L250.09 300.82L250.53 302.01L250.89 303.22L251.18 304.46L251.38 305.74L251.51 307.04L251.55 308.36L251.51 309.68L251.38 310.98L251.18 312.25L250.89 313.49L250.53 314.71L250.09 315.89L249.59 317.03L249.01 318.14L248.38 319.2L247.67 320.22L246.91 321.2L246.09 322.12L245.22 323L244.3 323.82L243.32 324.58L242.3 325.28L241.24 325.92L240.13 326.49L238.98 327L237.8 327.43L236.59 327.79L235.34 328.08L234.07 328.29L232.77 328.41L231.45 328.46L230.13 328.41L228.83 328.29L227.56 328.08L226.32 327.79L225.1 327.43L223.92 327L222.78 326.49L221.67 325.92L220.61 325.28L219.58 324.58L218.61 323.82L217.69 323L216.81 322.12L215.99 321.2L215.23 320.22L214.53 319.2L213.89 318.14L213.32 317.03L212.81 315.89L212.38 314.71L212.01 313.49L211.73 312.25L211.52 310.98L211.39 309.68L211.35 308.36L211.39 307.04L211.52 305.74L211.73 304.46L212.01 303.22L212.38 302.01L212.81 300.82L213.32 299.68L213.89 298.57L214.53 297.51L215.23 296.49L215.99 295.51L216.81 294.59L217.69 293.72L218.61 292.9L219.58 292.14L220.61 291.43L221.67 290.8L222.78 290.22L223.92 289.72L225.1 289.28L226.32 288.92L227.56 288.63L228.83 288.42L230.13 288.3L231.45 288.26L232.77 288.3L234.07 288.42ZM228.86 298.94L227.65 299.36L226.53 299.93L225.49 300.63L224.55 301.45L223.72 302.39L223.02 303.43L222.46 304.56L222.04 305.76L221.78 307.03L221.69 308.36L221.78 309.68L222.04 310.95L222.46 312.16L223.02 313.28L223.72 314.32L224.55 315.26L225.49 316.08L226.53 316.79L227.65 317.35L228.86 317.77L230.13 318.03L231.45 318.12L232.78 318.03L234.05 317.77L235.25 317.35L236.38 316.79L237.42 316.08L238.36 315.26L239.18 314.32L239.88 313.28L240.45 312.16L240.87 310.95L241.13 309.68L241.22 308.36L241.13 307.03L240.87 305.76L240.45 304.56L239.88 303.43L239.18 302.39L238.36 301.45L237.42 300.63L236.38 299.93L235.25 299.36L234.05 298.94L232.78 298.68L231.45 298.59L230.13 298.68L228.86 298.94Z" id="b3PzSAXjc"></path><path d="M71.13 352.86C71.13 358.24 66.76 362.62 61.37 362.62C55.98 362.62 51.61 358.24 51.61 352.86C51.61 347.47 55.98 343.09 61.37 343.09C66.76 343.09 71.13 347.47 71.13 352.86Z" id="c6Qmrp2Vk"></path><path d="M257.68 408.69L275.18 408.69L275.18 426.19L257.68 426.19L257.68 408.69Z" id="b2hHtmKD5C"></path><path d="M116.5 496.13C84.53 484.47 74.15 469.78 85.35 452.05C96.55 434.32 93.75 425.71 76.95 426.21" id="epQIBZy2Z"></path><path d="M224.01 439.11C241.36 441.82 245.15 457.8 235.39 487.07" id="aaxIGQWzg"></path><path d="M173.5 548.19C195.18 547.1 207.79 555.51 211.35 573.39" id="a8iWsyWK4"></path><path d="M43.41 589.51C-3.2 605.23 -5.91 584.36 35.28 526.91" id="h1Jql2zX"></path><path d="M142.44 121.46C143.52 84.07 118.78 70.79 68.2 81.63" id="b11WGcJAf"></path><path d="" id="b7eAXW8ge"></path></defs><g><g><g><g><filter id="shadow16541873" x="12.99" y="229.7" width="70.2" height="70.2" filterUnits="userSpaceOnUse" primitiveUnits="userSpaceOnUse"><feFlood></feFlood><feComposite in2="SourceAlpha" operator="in"></feComposite><feGaussianBlur stdDeviation="2"></feGaussianBlur><feOffset dx="0" dy="0" result="afterOffset"></feOffset><feFlood flood-color="#e56399" flood-opacity="0.8"></feFlood><feComposite in2="afterOffset" operator="in"></feComposite><feMorphology operator="dilate" radius="2"></feMorphology><feComposite in2="SourceAlpha" operator="out"></feComposite></filter><path d="M50.71 244.87L51.99 245.08L53.23 245.36L54.44 245.73L55.63 246.16L56.77 246.67L57.88 247.24L58.94 247.88L59.96 248.58L60.94 249.34L61.86 250.16L62.74 251.03L63.55 251.96L64.31 252.93L65.02 253.95L65.66 255.02L66.23 256.12L66.73 257.27L67.17 258.45L67.53 259.66L67.82 260.91L68.03 262.18L68.15 263.48L68.2 264.8L68.15 266.12L68.03 267.42L67.82 268.69L67.53 269.94L67.17 271.15L66.73 272.33L66.23 273.48L65.66 274.58L65.02 275.65L64.31 276.67L63.55 277.64L62.74 278.57L61.86 279.44L60.94 280.26L59.96 281.02L58.94 281.72L57.88 282.36L56.77 282.94L55.63 283.44L54.44 283.88L53.23 284.24L51.99 284.53L50.71 284.73L49.41 284.86L48.09 284.9L46.77 284.86L45.48 284.73L44.2 284.53L42.96 284.24L41.74 283.88L40.56 283.44L39.42 282.94L38.31 282.36L37.25 281.72L36.23 281.02L35.25 280.26L34.33 279.44L33.45 278.57L32.63 277.64L31.87 276.67L31.17 275.65L30.53 274.58L29.96 273.48L29.45 272.33L29.02 271.15L28.66 269.94L28.37 268.69L28.16 267.42L28.04 266.12L27.99 264.8L28.04 263.48L28.16 262.18L28.37 260.91L28.66 259.66L29.02 258.45L29.45 257.27L29.96 256.12L30.53 255.02L31.17 253.95L31.87 252.93L32.63 251.96L33.45 251.03L34.33 250.16L35.25 249.34L36.23 248.58L37.25 247.88L38.31 247.24L39.42 246.67L40.56 246.16L41.74 245.73L42.96 245.36L44.2 245.08L45.48 244.87L46.77 244.74L48.09 244.7L49.41 244.74L50.71 244.87ZM45.5 255.39L44.3 255.81L43.17 256.37L42.13 257.07L41.19 257.9L40.37 258.84L39.66 259.87L39.1 261L38.68 262.21L38.42 263.48L38.33 264.8L38.42 266.12L38.68 267.4L39.1 268.6L39.66 269.73L40.37 270.77L41.19 271.7L42.13 272.53L43.17 273.23L44.3 273.8L45.5 274.22L46.77 274.48L48.09 274.56L49.42 274.48L50.69 274.22L51.89 273.8L53.02 273.23L54.06 272.53L55 271.7L55.82 270.77L56.52 269.73L57.09 268.6L57.51 267.4L57.77 266.12L57.86 264.8L57.77 263.48L57.51 262.21L57.09 261L56.52 259.87L55.82 258.84L55 257.9L54.06 257.07L53.02 256.37L51.89 255.81L50.69 255.39L49.42 255.13L48.09 255.04L46.77 255.13L45.5 255.39Z" id="a1ca1QoWe" fill="white" fill-opacity="1" filter="url(#shadow16541873)"></path></g><use xlink:href="#c1gRD6hYYM" opacity="1" fill="#e56399" fill-opacity="0"></use><g><use xlink:href="#c1gRD6hYYM" opacity="1" fill-opacity="0" stroke="#e56399" stroke-width="2" stroke-opacity="1"></use></g></g><g><g><filter id="shadow9753800" x="137.02" y="144.09" width="159.8" height="135.71" filterUnits="userSpaceOnUse" primitiveUnits="userSpaceOnUse"><feFlood></feFlood><feComposite in2="SourceAlpha" operator="in"></feComposite><feGaussianBlur stdDeviation="2"></feGaussianBlur><feOffset dx="0" dy="0" result="afterOffset"></feOffset><feFlood flood-color="#e56399" flood-opacity="0.8"></feFlood><feComposite in2="afterOffset" operator="in"></feComposite><feMorphology operator="dilate" radius="2"></feMorphology><feComposite in2="SourceAlpha" operator="out"></feComposite></filter><path d="M281.82 159.09C176.91 176.71 142.83 198.91 179.59 225.71C216.35 252.52 207.16 265.53 152.02 264.77" id="dExVpKZo7" fill="none" stroke="white" filter="url(#shadow9753800)"></path></g><g><use xlink:href="#a1gsYfJTVd" opacity="1" fill-opacity="0" stroke="#e56399" stroke-width="2" stroke-opacity="1"></use></g></g><g><g><filter id="shadow6002684" x="39.04" y="129.45" width="47.51" height="47.51" filterUnits="userSpaceOnUse" primitiveUnits="userSpaceOnUse"><feFlood></feFlood><feComposite in2="SourceAlpha" operator="in"></feComposite><feGaussianBlur stdDeviation="2"></feGaussianBlur><feOffset dx="0" dy="0" result="afterOffset"></feOffset><feFlood flood-color="#e56399" flood-opacity="0.8"></feFlood><feComposite in2="afterOffset" operator="in"></feComposite><feMorphology operator="dilate" radius="2"></feMorphology><feComposite in2="SourceAlpha" operator="out"></feComposite></filter><path d="M54.04 144.45L71.54 144.45L71.54 161.95L54.04 161.95L54.04 144.45Z" id="bFOturPSr" fill="white" fill-opacity="1" filter="url(#shadow6002684)"></path></g><use xlink:href="#d5pj8bkKZp" opacity="1" fill="#e56399" fill-opacity="1"></use></g><g><g><filter id="shadow10879322" x="161.72" y="39.07" width="70.2" height="70.2" filterUnits="userSpaceOnUse" primitiveUnits="userSpaceOnUse"><feFlood></feFlood><feComposite in2="SourceAlpha" operator="in"></feComposite><feGaussianBlur stdDeviation="2"></feGaussianBlur><feOffset dx="0" dy="0" result="afterOffset"></feOffset><feFlood flood-color="#e56399" flood-opacity="0.8"></feFlood><feComposite in2="afterOffset" operator="in"></feComposite><feMorphology operator="dilate" radius="2"></feMorphology><feComposite in2="SourceAlpha" operator="out"></feComposite></filter><path d="M199.44 54.24L200.71 54.45L201.96 54.74L203.17 55.1L204.35 55.54L205.5 56.04L206.6 56.61L207.67 57.25L208.69 57.96L209.66 58.72L210.59 59.53L211.46 60.41L212.28 61.33L213.04 62.31L213.74 63.33L214.38 64.39L214.95 65.5L215.46 66.64L215.89 67.83L216.26 69.04L216.54 70.28L216.75 71.56L216.88 72.86L216.92 74.18L216.88 75.5L216.75 76.79L216.54 78.07L216.26 79.31L215.89 80.53L215.46 81.71L214.95 82.85L214.38 83.96L213.74 85.02L213.04 86.04L212.28 87.02L211.46 87.94L210.59 88.82L209.66 89.64L208.69 90.4L207.67 91.1L206.6 91.74L205.5 92.31L204.35 92.82L203.17 93.25L201.96 93.61L200.71 93.9L199.44 94.11L198.14 94.23L196.82 94.28L195.5 94.23L194.2 94.11L192.93 93.9L191.68 93.61L190.47 93.25L189.29 92.82L188.14 92.31L187.04 91.74L185.97 91.1L184.95 90.4L183.98 89.64L183.05 88.82L182.18 87.94L181.36 87.02L180.6 86.04L179.9 85.02L179.26 83.96L178.68 82.85L178.18 81.71L177.74 80.53L177.38 79.31L177.09 78.07L176.89 76.79L176.76 75.5L176.72 74.18L176.76 72.86L176.89 71.56L177.09 70.28L177.38 69.04L177.74 67.83L178.18 66.64L178.68 65.5L179.26 64.39L179.9 63.33L180.6 62.31L181.36 61.33L182.18 60.41L183.05 59.53L183.98 58.72L184.95 57.96L185.97 57.25L187.04 56.61L188.14 56.04L189.29 55.54L190.47 55.1L191.68 54.74L192.93 54.45L194.2 54.24L195.5 54.12L196.82 54.07L198.14 54.12L199.44 54.24ZM194.22 64.76L193.02 65.18L191.89 65.75L190.85 66.45L189.92 67.27L189.09 68.21L188.39 69.25L187.82 70.38L187.4 71.58L187.14 72.85L187.06 74.18L187.14 75.5L187.4 76.77L187.82 77.97L188.39 79.1L189.09 80.14L189.92 81.08L190.85 81.9L191.89 82.61L193.02 83.17L194.22 83.59L195.49 83.85L196.82 83.94L198.14 83.85L199.41 83.59L200.62 83.17L201.75 82.61L202.78 81.9L203.72 81.08L204.55 80.14L205.25 79.1L205.81 77.97L206.23 76.77L206.49 75.5L206.58 74.18L206.49 72.85L206.23 71.58L205.81 70.38L205.25 69.25L204.55 68.21L203.72 67.27L202.78 66.45L201.75 65.75L200.62 65.18L199.41 64.76L198.14 64.5L196.82 64.41L195.49 64.5L194.22 64.76Z" id="c1N4WXZCBf" fill="white" fill-opacity="1" filter="url(#shadow10879322)"></path></g><use xlink:href="#f4rFt1DN9q" opacity="1" fill="#e56399" fill-opacity="0"></use><g><use xlink:href="#f4rFt1DN9q" opacity="1" fill-opacity="0" stroke="#e56399" stroke-width="2" stroke-opacity="1"></use></g></g><g><g><filter id="shadow9700238" x="39.04" y="6.14" width="49.53" height="49.53" filterUnits="userSpaceOnUse" primitiveUnits="userSpaceOnUse"><feFlood></feFlood><feComposite in2="SourceAlpha" operator="in"></feComposite><feGaussianBlur stdDeviation="2"></feGaussianBlur><feOffset dx="0" dy="0" result="afterOffset"></feOffset><feFlood flood-color="#e56399" flood-opacity="0.8"></feFlood><feComposite in2="afterOffset" operator="in"></feComposite><feMorphology operator="dilate" radius="2"></feMorphology><feComposite in2="SourceAlpha" operator="out"></feComposite></filter><path d="M73.56 30.91C73.56 36.29 69.19 40.67 63.8 40.67C58.41 40.67 54.04 36.29 54.04 30.91C54.04 25.52 58.41 21.14 63.8 21.14C69.19 21.14 73.56 25.52 73.56 30.91Z" id="duTv5BfaY" fill="white" fill-opacity="1" filter="url(#shadow9700238)"></path></g><use xlink:href="#d1cggDNZPh" opacity="1" fill="#e56399" fill-opacity="1"></use><g><use xlink:href="#d1cggDNZPh" opacity="1" fill-opacity="0" stroke="#732efa" stroke-width="0" stroke-opacity="1"></use></g></g><g><g><filter id="shadow7753146" x="206.14" y="283" width="49.53" height="49.53" filterUnits="userSpaceOnUse" primitiveUnits="userSpaceOnUse"><feFlood></feFlood><feComposite in2="SourceAlpha" operator="in"></feComposite><feGaussianBlur stdDeviation="2"></feGaussianBlur><feOffset dx="0" dy="0" result="afterOffset"></feOffset><feFlood flood-color="#e56399" flood-opacity="0.8"></feFlood><feComposite in2="afterOffset" operator="in"></feComposite><feMorphology operator="dilate" radius="2"></feMorphology><feComposite in2="SourceAlpha" operator="out"></feComposite></filter><path d="M240.66 307.76C240.66 313.15 236.29 317.52 230.9 317.52C225.51 317.52 221.14 313.15 221.14 307.76C221.14 302.37 225.51 298 230.9 298C236.29 298 240.66 302.37 240.66 307.76Z" id="bzUDroaaF" fill="white" fill-opacity="1" filter="url(#shadow7753146)"></path></g><use xlink:href="#c4y3Du69s" opacity="1" fill="#e56399" fill-opacity="1"></use><g><use xlink:href="#c4y3Du69s" opacity="1" fill-opacity="0" stroke="#732efa" stroke-width="0" stroke-opacity="1"></use></g></g><g><g><filter id="shadow210586" x="196.35" y="273.26" width="70.2" height="70.2" filterUnits="userSpaceOnUse" primitiveUnits="userSpaceOnUse"><feFlood></feFlood><feComposite in2="SourceAlpha" operator="in"></feComposite><feGaussianBlur stdDeviation="2"></feGaussianBlur><feOffset dx="0" dy="0" result="afterOffset"></feOffset><feFlood flood-color="#e56399" flood-opacity="0.8"></feFlood><feComposite in2="afterOffset" operator="in"></feComposite><feMorphology operator="dilate" radius="2"></feMorphology><feComposite in2="SourceAlpha" operator="out"></feComposite></filter><path d="M234.07 288.42L235.34 288.63L236.59 288.92L237.8 289.28L238.98 289.72L240.13 290.22L241.24 290.8L242.3 291.43L243.32 292.14L244.3 292.9L245.22 293.72L246.09 294.59L246.91 295.51L247.67 296.49L248.38 297.51L249.01 298.57L249.59 299.68L250.09 300.82L250.53 302.01L250.89 303.22L251.18 304.46L251.38 305.74L251.51 307.04L251.55 308.36L251.51 309.68L251.38 310.98L251.18 312.25L250.89 313.49L250.53 314.71L250.09 315.89L249.59 317.03L249.01 318.14L248.38 319.2L247.67 320.22L246.91 321.2L246.09 322.12L245.22 323L244.3 323.82L243.32 324.58L242.3 325.28L241.24 325.92L240.13 326.49L238.98 327L237.8 327.43L236.59 327.79L235.34 328.08L234.07 328.29L232.77 328.41L231.45 328.46L230.13 328.41L228.83 328.29L227.56 328.08L226.32 327.79L225.1 327.43L223.92 327L222.78 326.49L221.67 325.92L220.61 325.28L219.58 324.58L218.61 323.82L217.69 323L216.81 322.12L215.99 321.2L215.23 320.22L214.53 319.2L213.89 318.14L213.32 317.03L212.81 315.89L212.38 314.71L212.01 313.49L211.73 312.25L211.52 310.98L211.39 309.68L211.35 308.36L211.39 307.04L211.52 305.74L211.73 304.46L212.01 303.22L212.38 302.01L212.81 300.82L213.32 299.68L213.89 298.57L214.53 297.51L215.23 296.49L215.99 295.51L216.81 294.59L217.69 293.72L218.61 292.9L219.58 292.14L220.61 291.43L221.67 290.8L222.78 290.22L223.92 289.72L225.1 289.28L226.32 288.92L227.56 288.63L228.83 288.42L230.13 288.3L231.45 288.26L232.77 288.3L234.07 288.42ZM228.86 298.94L227.65 299.36L226.53 299.93L225.49 300.63L224.55 301.45L223.72 302.39L223.02 303.43L222.46 304.56L222.04 305.76L221.78 307.03L221.69 308.36L221.78 309.68L222.04 310.95L222.46 312.16L223.02 313.28L223.72 314.32L224.55 315.26L225.49 316.08L226.53 316.79L227.65 317.35L228.86 317.77L230.13 318.03L231.45 318.12L232.78 318.03L234.05 317.77L235.25 317.35L236.38 316.79L237.42 316.08L238.36 315.26L239.18 314.32L239.88 313.28L240.45 312.16L240.87 310.95L241.13 309.68L241.22 308.36L241.13 307.03L240.87 305.76L240.45 304.56L239.88 303.43L239.18 302.39L238.36 301.45L237.42 300.63L236.38 299.93L235.25 299.36L234.05 298.94L232.78 298.68L231.45 298.59L230.13 298.68L228.86 298.94Z" id="a1TO2yg0k7" fill="white" fill-opacity="1" filter="url(#shadow210586)"></path></g><use xlink:href="#b3PzSAXjc" opacity="1" fill="#e56399" fill-opacity="0"></use><g><use xlink:href="#b3PzSAXjc" opacity="1" fill-opacity="0" stroke="#e56399" stroke-width="2" stroke-opacity="1"></use></g></g><g><g><filter id="shadow9974611" x="36.61" y="328.09" width="49.53" height="49.53" filterUnits="userSpaceOnUse" primitiveUnits="userSpaceOnUse"><feFlood></feFlood><feComposite in2="SourceAlpha" operator="in"></feComposite><feGaussianBlur stdDeviation="2"></feGaussianBlur><feOffset dx="0" dy="0" result="afterOffset"></feOffset><feFlood flood-color="#e56399" flood-opacity="0.8"></feFlood><feComposite in2="afterOffset" operator="in"></feComposite><feMorphology operator="dilate" radius="2"></feMorphology><feComposite in2="SourceAlpha" operator="out"></feComposite></filter><path d="M71.13 352.86C71.13 358.24 66.76 362.62 61.37 362.62C55.98 362.62 51.61 358.24 51.61 352.86C51.61 347.47 55.98 343.09 61.37 343.09C66.76 343.09 71.13 347.47 71.13 352.86Z" id="f1aEq0wZjj" fill="white" fill-opacity="1" filter="url(#shadow9974611)"></path></g><use xlink:href="#c6Qmrp2Vk" opacity="1" fill="#e56399" fill-opacity="1"></use><g><use xlink:href="#c6Qmrp2Vk" opacity="1" fill-opacity="0" stroke="#732efa" stroke-width="0" stroke-opacity="1"></use></g></g><g><g><filter id="shadow4422670" x="242.68" y="393.69" width="47.51" height="47.51" filterUnits="userSpaceOnUse" primitiveUnits="userSpaceOnUse"><feFlood></feFlood><feComposite in2="SourceAlpha" operator="in"></feComposite><feGaussianBlur stdDeviation="2"></feGaussianBlur><feOffset dx="0" dy="0" result="afterOffset"></feOffset><feFlood flood-color="#e56399" flood-opacity="0.8"></feFlood><feComposite in2="afterOffset" operator="in"></feComposite><feMorphology operator="dilate" radius="2"></feMorphology><feComposite in2="SourceAlpha" operator="out"></feComposite></filter><path d="M257.68 408.69L275.18 408.69L275.18 426.19L257.68 426.19L257.68 408.69Z" id="d1QCTdBYO3" fill="white" fill-opacity="1" filter="url(#shadow4422670)"></path></g><use xlink:href="#b2hHtmKD5C" opacity="1" fill="#e56399" fill-opacity="1"></use></g><g><g><filter id="shadow4260579" x="61.95" y="411.19" width="69.55" height="99.94" filterUnits="userSpaceOnUse" primitiveUnits="userSpaceOnUse"><feFlood></feFlood><feComposite in2="SourceAlpha" operator="in"></feComposite><feGaussianBlur stdDeviation="2"></feGaussianBlur><feOffset dx="0" dy="0" result="afterOffset"></feOffset><feFlood flood-color="#e56399" flood-opacity="0.8"></feFlood><feComposite in2="afterOffset" operator="in"></feComposite><feMorphology operator="dilate" radius="2"></feMorphology><feComposite in2="SourceAlpha" operator="out"></feComposite></filter><path d="M116.5 496.13C84.53 484.47 74.15 469.78 85.35 452.05C96.55 434.32 93.75 425.71 76.95 426.21" id="a1Mqe4ToUG" fill="none" stroke="white" filter="url(#shadow4260579)"></path></g><g><use xlink:href="#epQIBZy2Z" opacity="1" fill-opacity="0" stroke="#e56399" stroke-width="2" stroke-opacity="1"></use></g></g><g><use xlink:href="#aaxIGQWzg" opacity="1" fill="#e56399" fill-opacity="0"></use><g><use xlink:href="#aaxIGQWzg" opacity="1" fill-opacity="0" stroke="#e56399" stroke-width="2" stroke-opacity="1"></use></g></g><g><g><filter id="shadow10549990" x="158.5" y="533.1" width="67.86" height="55.3" filterUnits="userSpaceOnUse" primitiveUnits="userSpaceOnUse"><feFlood></feFlood><feComposite in2="SourceAlpha" operator="in"></feComposite><feGaussianBlur stdDeviation="2"></feGaussianBlur><feOffset dx="0" dy="0" result="afterOffset"></feOffset><feFlood flood-color="#e56399" flood-opacity="0.8"></feFlood><feComposite in2="afterOffset" operator="in"></feComposite><feMorphology operator="dilate" radius="2"></feMorphology><feComposite in2="SourceAlpha" operator="out"></feComposite></filter><path d="M173.5 548.19C195.18 547.1 207.79 555.51 211.35 573.39" id="c3QauCsCfe" fill="none" stroke="white" filter="url(#shadow10549990)"></path></g><g><use xlink:href="#a8iWsyWK4" opacity="1" fill-opacity="0" stroke="#e56399" stroke-width="3" stroke-opacity="1"></use></g></g><g><g><filter id="shadow12199991" x="-8.7" y="511.91" width="67.12" height="97.67" filterUnits="userSpaceOnUse" primitiveUnits="userSpaceOnUse"><feFlood></feFlood><feComposite in2="SourceAlpha" operator="in"></feComposite><feGaussianBlur stdDeviation="2"></feGaussianBlur><feOffset dx="0" dy="0" result="afterOffset"></feOffset><feFlood flood-color="#e56399" flood-opacity="0.85"></feFlood><feComposite in2="afterOffset" operator="in"></feComposite><feMorphology operator="dilate" radius="2"></feMorphology><feComposite in2="SourceAlpha" operator="out"></feComposite></filter><path d="M43.41 589.51C-3.2 605.23 -5.91 584.36 35.28 526.91" id="a1IbGdSuIb" fill="none" stroke="white" filter="url(#shadow12199991)"></path></g><g><use xlink:href="#h1Jql2zX" opacity="1" fill-opacity="0" stroke="#e56399" stroke-width="2" stroke-opacity="1"></use></g></g><g><g><filter id="shadow13905909" x="49.2" y="58.97" width="112.28" height="81.49" filterUnits="userSpaceOnUse" primitiveUnits="userSpaceOnUse"><feFlood></feFlood><feComposite in2="SourceAlpha" operator="in"></feComposite><feGaussianBlur stdDeviation="2.45"></feGaussianBlur><feOffset dx="0" dy="0" result="afterOffset"></feOffset><feFlood flood-color="#e56399" flood-opacity="0.92"></feFlood><feComposite in2="afterOffset" operator="in"></feComposite><feMorphology operator="dilate" radius="2"></feMorphology><feComposite in2="SourceAlpha" operator="out"></feComposite></filter><path d="M142.44 121.46C143.52 84.07 118.78 70.79 68.2 81.63" id="b2cTMUb72S" fill="none" stroke="white" filter="url(#shadow13905909)"></path></g><g><use xlink:href="#b11WGcJAf" opacity="1" fill-opacity="0" stroke="#e56399" stroke-width="2" stroke-opacity="1"></use></g></g><g><g><use xlink:href="#b7eAXW8ge" opacity="1" fill-opacity="0" stroke="#e56399" stroke-width="2" stroke-opacity="1"></use></g></g></g></g></svg>